<?xml version="1.0" encoding="UTF-8"?>
<svg id="Layer_1" data-name="Layer 1" xmlns="http://www.w3.org/2000/svg" viewBox="0 0 512 512">
  <style>
    .r { fill: #1d4433; }
    @media (prefers-color-scheme: dark) {
      .r { fill: #ffffff; }
    }
  </style>
  <path class="r" d="M468.55,349.14c4.11,0,7.27,1.9,9.48,5.68,2.53,3.79,3.79,9,3.79,15.63,0,12.32-3,22.11-9,29.37-15.16,18.32-30.49,32.53-45.97,42.63-15.48,9.79-33.81,14.68-54.97,14.68s-38.07-5.53-52.6-16.58c-14.22-11.05-27.8-30-40.76-56.84-10.43-21.47-18.64-37.26-24.64-47.37-6-10.42-12.01-17.84-18.01-22.26-5.69-4.42-12.8-7.11-21.33-8.05-1.26,6.63-4.9,27.48-10.9,62.53-2.53,15.79-4.11,25.42-4.74,28.89-3.16,19.26-9.48,34.11-18.96,44.53-9.48,10.11-23.85,15.16-43.13,15.16-21.17,0-39.97-6.16-56.4-18.47-16.11-12.63-28.59-30-37.44-52.11-8.85-22.42-13.27-47.84-13.27-76.27,0-53.06,9.16-98.85,27.49-137.37,18.64-38.53,44.55-67.9,77.72-88.11,33.49-20.53,72.04-30.79,115.64-30.79,30.33,0,55.76,4.58,76.3,13.74,20.54,9.16,35.7,21.79,45.5,37.9,10.11,16.11,15.17,34.26,15.17,54.48,0,17.69-4.27,35.05-12.8,52.11-8.22,16.74-20.7,31.58-37.44,44.53-16.74,12.95-37.12,22.58-61.13,28.9,15.16,4.11,26.85,10.74,35.07,19.9,8.22,9.16,16.43,22.58,24.64,40.27,8.85,18.95,17.53,32.84,26.06,41.69,8.85,8.84,18.96,13.26,30.33,13.26,10.11,0,19.75-3.32,28.91-9.95,9.16-6.95,20.69-18.63,34.6-35.05,3.79-4.42,8.06-6.63,12.8-6.63ZM149.13,305.56c-10.74,0-18.17-2.53-22.27-7.58-3.79-5.05-5.69-10.74-5.69-17.05,0-7.58,2.37-13.58,7.11-18,5.06-4.42,10.74-6.63,17.06-6.63h11.85c5.06-30.95,9.79-57.63,14.22-80.06,4.11-20.53,17.38-30.79,39.81-30.79,18.01,0,27.01,8.05,27.01,24.16,0,3.47-.16,6.16-.48,8.05l-14.22,78.63c17.06-.95,32.54-5.05,46.44-12.32,14.22-7.26,25.43-17.37,33.65-30.32,8.53-12.95,12.8-27.63,12.8-44.05,0-19.9-6.79-35.53-20.38-46.9-13.59-11.37-33.49-17.05-59.71-17.05-30.96,0-58.13,7.74-81.51,23.21-23.06,15.16-41.07,37.9-54.03,68.21-12.95,30-19.43,66.63-19.43,109.9,0,20.21,2.05,37.58,6.16,52.11,4.11,14.53,9.16,25.42,15.17,32.68,6,7.26,11.69,10.9,17.06,10.9,4.11,0,7.42-2.05,9.95-6.16,2.84-4.11,5.06-10.74,6.63-19.9l12.8-71.06Z"/>
  <path d="M396.43,380.11c-13.9,0-24.48-3.79-31.75-11.37-6.95-7.58-10.43-17.53-10.43-29.84,0-14.21,3.95-25.58,11.85-34.11,8.22-8.53,19.59-12.79,34.12-12.79s24.33,3.47,31.29,10.42c7.27,6.63,10.9,16.58,10.9,29.84,0,14.53-4.11,26.21-12.33,35.05-8.21,8.53-19.42,12.79-33.65,12.79Z" fill="#c5714b"/>
</svg>
